<?xml version="1.0" encoding="utf-8"?>
<!-- Generator: Adobe Illustrator 18.0.0, SVG Export Plug-In . SVG Version: 6.00 Build 0)  -->
<!DOCTYPE svg PUBLIC "-//W3C//DTD SVG 1.1//EN" "http://www.w3.org/Graphics/SVG/1.1/DTD/svg11.dtd">
<svg version="1.1" id="_x31__1_" xmlns="http://www.w3.org/2000/svg" xmlns:xlink="http://www.w3.org/1999/xlink" x="0px" y="0px"
	 viewBox="0 0 381.3 301.3" enable-background="new 0 0 381.3 301.3" xml:space="preserve">
<g>
	
		<ellipse transform="matrix(-0.8687 -0.4954 0.4954 -0.8687 213.5315 225.4003)" fill="#1C0D04" cx="136.6" cy="84.4" rx="3.2" ry="9.6"/>
	<path fill="#CE2708" d="M130.9,91.7c0.2,0.4,0.4,0.7,0.6,0.8l0.2,0.1c1.4,0.5,4.5-2.6,7-7c2.5-4.4,3.6-8.6,2.5-9.6l-0.1-0.1
		c-0.2-0.1-0.6-0.2-1-0.1c-1.9,0.3-5.2,2.3-7.4,5.8c-0.1,0.1-0.2,0.3-0.2,0.4C130.3,85.7,130.2,89.9,130.9,91.7z"/>
	<path fill="#E8331A" d="M130.9,91.7c0.1,0,0.2-0.1,0.3-0.2c1.3-0.9,3.4-3.7,5.4-7.2c2-3.5,3.3-6.7,3.4-8.3c0-0.1,0-0.2,0-0.3
		c-1.9,0.3-5.2,2.3-7.4,5.8c-0.1,0.1-0.2,0.3-0.2,0.4C130.3,85.7,130.2,89.9,130.9,91.7z"/>
	
		<ellipse transform="matrix(-0.8545 -0.5194 0.5194 -0.8545 205.3262 223.6452)" fill="#474747" cx="134" cy="83.1" rx="1.5" ry="2"/>
	<path fill="#C3C3C3" d="M113.5,116.1c0.4,0,0.7-0.2,0.8-0.6l12-30.4l7.7-1.5c0.5-0.1,0.8-0.6,0.7-1c-0.1-0.5-0.6-0.8-1-0.7
		l-8.2,1.6c-0.3,0.1-0.5,0.3-0.7,0.5l-12.2,30.8c-0.2,0.5,0,1,0.5,1.1C113.2,116.1,113.4,116.1,113.5,116.1z"/>
	<path fill="#F6F1D3" d="M262.3,256.3c0,11.6,9.4,21,21,21c11.6,0,21-9.4,21-21c0-11.6-9.4-21-21-21
		C271.7,235.2,262.3,244.6,262.3,256.3"/>
	<path fill="#CE2708" d="M270.3,256.3c0,6.7,5.4,12.1,12.1,12.1c6.7,0,12.1-5.4,12.1-12.1c0-6.7-5.4-12.1-12.1-12.1
		C275.8,244.1,270.3,249.6,270.3,256.3"/>
	<circle fill="#4A3231" cx="282.5" cy="256.3" r="4.1"/>
	<path fill="#3D3D3D" d="M243.4,257.4c0,22.1,17.9,39.9,39.9,39.9c22,0,39.9-17.9,39.9-39.9c0-22-17.9-39.9-39.9-39.9
		C261.3,217.5,243.4,235.4,243.4,257.4 M259.4,256.3c0-12.7,10.3-23,23-23c12.7,0,23,10.3,23,23c0,12.7-10.3,23-23,23
		C269.7,279.3,259.4,269,259.4,256.3"/>
	<path fill="#4A3231" d="M251.7,257.4c0,17.5,14.2,31.7,31.7,31.7c17.5,0,31.7-14.2,31.7-31.7c0-17.5-14.2-31.7-31.7-31.7
		C265.9,225.8,251.7,240,251.7,257.4 M264.4,256.5c0-10.1,8.2-18.3,18.3-18.3c10.1,0,18.3,8.2,18.3,18.3c0,10.1-8.2,18.3-18.3,18.3
		C272.5,274.8,264.4,266.6,264.4,256.5"/>
	<path fill="#E2DCC0" d="M245.5,256.3c0,20.5,16.5,37.2,36.9,37.2s36.9-16.6,36.9-37.2c0-20.5-16.5-37.2-36.9-37.2
		S245.5,235.7,245.5,256.3 M259.4,256.3c0-12.7,10.3-23,23-23c12.7,0,23,10.3,23,23c0,12.7-10.3,23-23,23
		C269.7,279.3,259.4,269,259.4,256.3"/>
	<path fill="#CE2708" d="M282.8,285.1c-15.9,0-28.9-12.9-28.9-28.9c0-15.9,12.9-28.9,28.9-28.9c15.9,0,28.9,12.9,28.9,28.9
		C311.6,272.2,298.7,285.1,282.8,285.1 M282.8,230.8c-14,0-25.4,11.4-25.4,25.4c0,14,11.4,25.4,25.4,25.4c14,0,25.4-11.4,25.4-25.4
		C308.2,242.2,296.8,230.8,282.8,230.8"/>
	<circle fill="#F6F1D3" cx="53.8" cy="256.3" r="21"/>
	<circle fill="#CE2708" cx="53" cy="256.3" r="12.1"/>
	<path fill="#3D3D3D" d="M13.9,257.4c0,22.1,17.9,39.9,39.9,39.9c22,0,39.9-17.9,39.9-39.9c0-22-17.9-39.9-39.9-39.9
		C31.8,217.5,13.9,235.4,13.9,257.4 M29.9,256.3c0-12.7,10.3-23,23-23c12.7,0,23,10.3,23,23c0,12.7-10.3,23-23,23
		C40.2,279.3,29.9,269,29.9,256.3"/>
	<path fill="#4A3231" d="M22.2,257.4c0,17.5,14.2,31.7,31.7,31.7c17.5,0,31.7-14.2,31.7-31.7c0-17.5-14.2-31.7-31.7-31.7
		C36.3,225.8,22.2,240,22.2,257.4 M34.8,256.5c0-10.1,8.2-18.3,18.3-18.3c10.1,0,18.2,8.2,18.2,18.3c0,10.1-8.2,18.2-18.2,18.2
		C43,274.8,34.8,266.6,34.8,256.5"/>
	<path fill="#E2DCC0" d="M16,256.3c0,20.5,16.5,37.2,36.9,37.2c20.4,0,36.9-16.6,36.9-37.2c0-20.5-16.5-37.2-36.9-37.2
		C32.5,219.1,16,235.7,16,256.3 M29.9,256.3c0-12.7,10.3-23,23-23c12.7,0,23,10.3,23,23c0,12.7-10.3,23-23,23
		C40.2,279.3,29.9,269,29.9,256.3"/>
	<path fill="#CE2708" d="M53.2,285.1c-15.9,0-28.9-12.9-28.9-28.9c0-15.9,12.9-28.9,28.9-28.9c15.9,0,28.9,12.9,28.9,28.9
		C82.1,272.2,69.2,285.1,53.2,285.1 M53.2,230.8c-14,0-25.4,11.4-25.4,25.4c0,14,11.4,25.4,25.4,25.4c14,0,25.4-11.4,25.4-25.4
		C78.7,242.2,67.3,230.8,53.2,230.8"/>
	<path fill="#C3C3C3" d="M49.7,254.6c0,0,2.2,0.8,3.4,1.9c0.4,0.4,0.7,0.7,0.7,1c-0.1,1.1,21-28.2,21-28.3l-2-2.7l-1.9-2.6l-3.4,4.8
		l-16.3,23.7L49.7,254.6"/>
	<path fill="#474747" d="M50,253.5c0,0.1,0.3,0,0.5-0.2c0.2-0.1,0.4-0.2,0.4-0.2c-0.2,1,16.9-23.7,17-23.7l-0.3-0.7L50,253.5"/>
	<path fill="#474747" d="M53.2,256.5c0.4,0.4,0.7,0.7,0.7,1c-0.1,1.1,21-28.2,21-28.3l-2-2.7L53.2,256.5"/>
	<circle fill="#4A3231" cx="53" cy="256.3" r="4.1"/>
	<path fill="#BFBFBF" d="M53,217.5c-6.6,0-12.9,1.7-18.3,4.6l0.1,0c0.2,0,0.3,0,0.5,0c5.6-3,11.9-4.6,18.7-4.6c0.1,0,0.1,0,0.2,0
		C53.7,217.5,53.3,217.5,53,217.5"/>
	<path fill="#2E2E2E" d="M53.8,217.5c-6.8,0-13.1,1.7-18.7,4.6c0.8,0.1,1.5,0.2,2.3,0.3c4.7-2.2,9.9-3.4,15.4-3.4
		c6.5,0,12.7,1.7,18,4.7l0,0l0,0c11.3,6.4,18.9,18.5,18.9,32.4c0,3.7-0.5,7.3-1.6,10.7c0.5,0.5,1,1.1,1.4,1.7c1.3-3.9,2-8.1,2-12.4
		c0-21-16.8-38.2-37.7-38.7C54,217.5,53.9,217.5,53.8,217.5"/>
	<path fill="#A9A590" d="M69.4,236.7c-0.5,0.6-0.9,1.3-1.4,2c4.8,4.5,7.6,9.8,10.6,15.1C77.9,246.9,74.5,240.8,69.4,236.7
		 M58.5,231.4c1.6,1.1,3.2,2.2,4.7,3.3l1-1.4C62.4,232.5,60.5,231.8,58.5,231.4 M70.9,223.8l1.9,2.6l2,2.7l0,0c0,0-1.4,1.9-3.4,4.8
		c6.5,5.3,10.7,13.4,10.7,22.4c0,1-0.1,2.1-0.2,3.1c0.9,1.3,1.8,2.6,2.9,3.9c1.2,1.4,2.3,2.6,3.4,3.8c1-3.4,1.6-7,1.6-10.7
		C89.8,242.3,82.2,230.2,70.9,223.8 M52.9,219.1c-5.5,0-10.7,1.2-15.4,3.4c4.7,0.8,9.6,2.6,14.2,5c0.5,0,1.1,0,1.6,0
		c4.7,0,9.1,1.1,13,3.1l1.3-1.8l3.4-4.8C65.6,220.8,59.4,219.1,52.9,219.1"/>
	<path fill="#9A1D06" d="M71.4,233.9c-0.6,0.9-1.3,1.8-2,2.8c5,4.2,8.5,10.2,9.1,17.1c1.1,1.9,2.2,3.8,3.4,5.6
		c0.1-1,0.2-2.1,0.2-3.1C82.1,247.3,77.9,239.2,71.4,233.9 M53.2,227.4c-0.5,0-1.1,0-1.6,0c2.4,1.2,4.7,2.5,6.9,3.9
		c2,0.4,3.9,1.1,5.7,1.9l2-2.8C62.3,228.5,57.9,227.4,53.2,227.4"/>
	<path fill="#929292" d="M70.9,223.8L70.9,223.8l-3.4,4.8l0.3,0.7c0,0-1.7,2.4-4,5.7c0.7,0.6,1.5,1.2,2.2,1.7l6.9-10.5L70.9,223.8
		L70.9,223.8"/>
	<path fill="#353535" d="M67.5,228.7l-1.3,1.8l-2,2.8l-1,1.4c0.2,0.1,0.4,0.3,0.6,0.4c2.3-3.3,4-5.7,4-5.7L67.5,228.7"/>
	<path fill="#353535" d="M72.9,226.4L72.9,226.4L66,236.9c0.6,0.5,1.1,1,1.7,1.4c0.1,0.1,0.2,0.2,0.3,0.3c3.8-5.2,6.9-9.5,6.9-9.5
		l0,0L72.9,226.4"/>
	<path fill="#494848" d="M347.8,222.1h-21.3v8.8h21.3c2.4,0,4.4-2,4.4-4.4C352.2,224.1,350.2,222.1,347.8,222.1z"/>
	<path fill="#E8331A" d="M343.3,193l0.5,0.5c1.2,1.3,1.9,3.3,1.9,5.4V212c0,2.9-1.6,5.2-3.7,5.4c-1.1,0.1-2.1-0.9-2.3-2.3
		c-0.8-4.7-2.1-14.9,0.3-21.1C340.5,192.2,342.2,191.8,343.3,193z"/>
	<polygon fill="#594040" points="335.9,185.4 342.6,191.1 342.6,218.2 333.2,220.9 	"/>
	<path fill="#BFBFBF" d="M279.2,214.3c-11.3,0-23.2,3.5-31.6,11.3c-6.2,5.7-9.2,13.2-8.1,20.7c0.5,3,1.6,6.1,3.4,9
		c0.2,0.3,0.3,0.5,0.5,0.8c0.7-21.4,18.3-38.6,39.9-38.6c4.6,0,9,0.8,13.2,2.2C291.4,216.4,285.8,214.3,279.2,214.3"/>
	<path fill="#B8B59E" d="M282.6,238.3c-10,0-18.1,8.1-18.3,18.1c2-1.2,4.2-2.3,6.4-3.4c1.5-5.1,6.1-8.8,11.7-8.8
		c3.2,0,6.1,1.3,8.3,3.3c2.6-0.3,5-0.5,7.3-0.6C294.9,241.7,289.1,238.3,282.6,238.3"/>
	<path fill="#9A1D06" d="M282.5,244.1c-5.5,0-10.2,3.7-11.7,8.8c2.8-1.3,5.9-2.4,9.1-3.3c3.9-1.1,7.6-1.8,10.9-2.2
		C288.6,245.4,285.7,244.1,282.5,244.1"/>
	<path fill="#2E2E2E" d="M311.1,232.8c3.8,4.7,6.5,10.3,7.6,16.5c0.3,0,0.5,0.1,0.7,0.1c0.8,0,1.1-0.3,0.9-1.2
		C319,243.2,314.6,237,311.1,232.8 M283.4,217.5c-21.6,0-39.2,17.2-39.9,38.6c2.3,4.4,1.4,9.6,3.1,14.3c0.1,0,0.6-0.4,1.3-1.1
		c-1.5-4-2.3-8.4-2.3-13c0-20.5,16.5-37.2,36.9-37.2c9.9,0,19,4,25.6,10.4c-3.7-3.7-7.5-7.1-11.5-9.8
		C292.4,218.3,288,217.5,283.4,217.5"/>
	<path fill="#372525" d="M282.4,233.3c-12.7,0-23,10.3-23,23c0,1.1,0.1,2.1,0.2,3.1c1.5-1,3.1-2.1,4.7-3.1
		c0.1-10,8.2-18.1,18.3-18.1c6.5,0,12.3,3.4,15.5,8.6c0.7,0,1.3,0,2,0c1.2,0,2.3,0,3.4,0.1C299.9,238.9,291.8,233.3,282.4,233.3"/>
	<path fill="#A9A590" d="M282.8,230.8c-14,0-25.4,11.4-25.4,25.4c0,1.5,0.1,3,0.4,4.5c0.6-0.5,1.2-0.9,1.9-1.4
		c-0.1-1-0.2-2.1-0.2-3.1c0-12.7,10.3-23,23-23c9.4,0,17.4,5.6,21,13.6c1.1,0.1,2.1,0.1,3.1,0.2
		C302.8,237.6,293.6,230.8,282.8,230.8 M282.4,219.1c-20.4,0-36.9,16.6-36.9,37.2c0,4.6,0.8,9,2.3,13c1.4-1.3,3.7-3.6,6.9-6.2
		c-0.5-2.2-0.8-4.5-0.8-6.9c0-15.9,12.9-28.9,28.9-28.9c12.9,0,23.9,8.5,27.5,20.2c0.9,0.2,1.8,0.3,2.6,0.5c2.6,0.5,4.5,1.1,5.8,1.2
		c-1.2-6.2-3.8-11.8-7.6-16.5c-1.1-1.3-2.1-2.3-2.9-3.2c0,0-0.1-0.1-0.1-0.1C301.4,223.1,292.4,219.1,282.4,219.1"/>
	<path fill="#9A1D06" d="M282.8,227.4c-15.9,0-28.9,12.9-28.9,28.9c0,2.4,0.3,4.7,0.8,6.9c0.9-0.8,1.9-1.5,3-2.3
		c-0.3-1.5-0.4-3-0.4-4.5c0-14,11.4-25.4,25.4-25.4c10.8,0,20.1,6.8,23.7,16.3c1.4,0.1,2.6,0.3,3.8,0.5
		C306.6,235.9,295.7,227.4,282.8,227.4"/>
	<path fill="#3D3D3D" d="M206.2,253.5l0.2-0.1c1.7-1.2,10.7-17.6,12.4-16.4c1.9,1.3,3.7,2.8,5.6,4.4c1.1-10,9.8-18.8,21.7-21.1
		c14.2-2.7,27.5,5,29.8,17.1c2.3,12.1-7.3,24.1-21.5,26.8c-2.4,0.5-36.4,0.1-46.3-2C203.9,261.4,202.7,256,206.2,253.5z"/>
	<path fill="#A7A9AC" d="M229.2,246.2c1.9,9.9,12.8,16.2,24.4,14c11.6-2.2,19.5-12,17.6-21.9c-1.9-9.9-12.8-16.2-24.4-14
		C235.2,226.4,227.4,236.3,229.2,246.2z M231.8,245.7c-1.6-8.7,5.3-17.4,15.5-19.3c10.2-1.9,19.8,3.6,21.4,12.3
		c1.6,8.7-5.3,17.4-15.5,19.3C243,260,233.4,254.4,231.8,245.7z"/>
	<path fill="#A7A9AC" d="M234.2,246.3l32.4-6.1c0.5-0.1,0.9-0.6,0.8-1.1c-0.1-0.5-0.6-0.9-1.1-0.8l-32.4,6.1
		c-0.5,0.1-0.9,0.6-0.8,1.1C233.2,246.1,233.7,246.4,234.2,246.3z"/>
	<path fill="#A7A9AC" d="M237.1,250.4l28.4-5.3c0.5-0.1,0.9-0.6,0.8-1.1c-0.1-0.5-0.6-0.9-1.1-0.8l-28.4,5.3
		c-0.5,0.1-0.9,0.6-0.8,1.1C236,250.2,236.5,250.5,237.1,250.4z"/>
	<path fill="#A7A9AC" d="M241.1,254.2l22-4.1c0.5-0.1,0.9-0.6,0.8-1.1c-0.1-0.5-0.6-0.9-1.1-0.8l-22,4.1c-0.5,0.1-0.9,0.6-0.8,1.1
		C240.1,254,240.6,254.3,241.1,254.2z"/>
	<path fill="#A7A9AC" d="M247.8,256.6l9.8-1.8c0.5-0.1,0.9-0.6,0.8-1.1c-0.1-0.5-0.6-0.9-1.1-0.8l-9.8,1.8c-0.5,0.1-0.9,0.6-0.8,1.1
		C246.8,256.3,247.3,256.7,247.8,256.6z"/>
	<path fill="#A7A9AC" d="M263.5,234.7l-28.4,5.3c-0.5,0.1-0.9,0.6-0.8,1.1c0.1,0.5,0.6,0.9,1.1,0.8l28.4-5.3
		c0.5-0.1,0.9-0.6,0.8-1.1C264.5,234.9,264,234.6,263.5,234.7z"/>
	<path fill="#A7A9AC" d="M259.5,230.9l-22,4.1c-0.5,0.1-0.9,0.6-0.8,1.1c0.1,0.5,0.6,0.9,1.1,0.8l22-4.1c0.5-0.1,0.9-0.6,0.8-1.1
		C260.5,231.1,260,230.8,259.5,230.9z"/>
	<path fill="#A7A9AC" d="M252.7,228.6l-9.8,1.8c-0.5,0.1-0.9,0.6-0.8,1.1c0.1,0.5,0.6,0.9,1.1,0.8l9.8-1.8c0.5-0.1,0.9-0.6,0.8-1.1
		C253.8,228.8,253.3,228.5,252.7,228.6z"/>
	<path fill="#CE2708" d="M105.2,254.2c-0.3-7.3-2.7-23.3-16-39.8c-11.5-12.6-37.8-22.3-69.9,1.4l-0.1,0.1c-1.3,0.9-0.6,2.8,0.9,2.8
		c21.7-1.1,45.7,5.1,59.9,22.7c3.4,4.3,6.3,9.4,10,13.4c2.5,2.8,7.6,3.1,11.2,3.4C103.4,258.2,105.3,256.4,105.2,254.2z"/>
	<path fill="#E8331A" d="M91.8,237c1.7-0.7,1.3-4.1,0.2-7.9c-4.1-14.3-19.9-21.9-34.1-21.9c-6.9,0-20.3,2-28.3,5.8
		c-0.6,0.3-0.5,1.2,0.2,1.3c14.6,1.5,28.6,0.4,41.4,7.9c5.5,3.2,10.4,9.4,15.6,13C89.3,236.9,90.9,237.3,91.8,237z"/>
	<path fill="#CE2708" d="M119.4,136.5l9.6-16.8c0.3-0.5,0.2-1.2-0.2-1.6l-13.5-13.5c-1.2-1.2-2.8-2.2-4.4-2.7l-11.4-3.5
		c-0.8-0.2-1.6,0.2-1.7,1l-4.1,19.9c-0.2,0.8,0.4,1.6,1.2,1.6l9.2,0.9c0.7,0.1,1.2,0.7,1.2,1.4v0.8c0,0.7-0.5,1.2-1.1,1.3
		c-1.2,0.2-1.5,1.8-0.5,2.5l13.8,9.2C118.1,137.4,119,137.2,119.4,136.5z"/>
	<path fill="#FFB743" d="M97.6,99.7H97c-2.9,0-5.3,2.4-5.3,5.3v11.2c0,1.1,0.3,2.2,0.8,3.2l2.3,1.6L97.6,99.7z"/>
	<path fill="#545454" d="M327.8,168.9l-1.3,3.1c-0.9,2.2-2.3,4.2-4.2,5.7l-5.6,4.7l15.4,3.2c-0.2-7.7,5.1-14.5,12.6-16.2
		c1.6-0.4,2.7-0.5,2.7-0.5H327.8z"/>
	<path fill="#CEC8AB" d="M172.1,182.6c-0.7-1.9-1.2-3.3-1.4-3.3l103.9-8.3l3.6,8.8l49.7,0.2c4.9,0,8.9,4,8.8,8.9l-0.1,32.1
		l-105.2-3.1c0,0-5.2,5.4-10.3,10.9c-4.5,0.4-10.2,2-17.4,5.2c-3.2,1.4-6.7,2.8-10.2,4.1c1.2-3.1,1.7-6.1,1.8-8.5
		C195.6,220.4,179.1,192.7,172.1,182.6z"/>
	<path fill="#AA1B07" d="M134.8,252.2c12.9-2.4,27.5-2.7,38.7-10.4c7.4-5.1,10.7-13.6,10.4-22.4c-0.4-9.2-4.6-15.3-7.9-24.6
		c-0.3-0.7-2.4-7.9-3.9-12.2c7,10.1,23.5,37.8,23,47c-0.1,2.4-0.6,5.4-1.8,8.5c-22.4,8.3-50.6,14.4-66.5,15.6
		C129.7,253.3,132.5,252.6,134.8,252.2z"/>
	<path fill="#CE2708" d="M104.6,217.1c0.1,0.2,0.1,0.3,0.2,0.5c0,0.1,0.1,0.2,0.1,0.3c0.1,0.3,0.2,0.5,0.3,0.8l0,0.1
		c0.1,0.3,0.2,0.6,0.3,0.9l0.1,0.3c0.1,0.2,0.1,0.4,0.2,0.6c0,0.1,0.1,0.2,0.1,0.3c0.1,0.2,0.1,0.3,0.2,0.5l0.1,0.2
		c0.1,0.2,0.1,0.4,0.1,0.5l0,0.1c0.1,0.2,0.1,0.4,0.2,0.6l0,0.1c0,0.1,0.1,0.3,0.1,0.4l0,0.2c0,0.1,0,0.2,0.1,0.3l0,0.2
		c0,0.1,0,0.2,0,0.3l0,0.1c0,0.1,0,0.2,0,0.4l0,0.1l0,0.2l0,0.1l0,0.1v0.1l0,0.1v0l0,0l3.7-2.5c1.2-0.8,2.2-1.7,3.1-2.6
		c2.7-2.9,4.1-6.4,4-10.1l-1.2-38c0-1-0.5-1.8-1.4-2.5c-0.6-0.5-1.4-0.8-2.3-1c-0.3,0-0.5-0.1-0.8-0.1c-3,0-5-1.3-5.5-3.1
		C104.1,176.1,101.3,195.3,104.6,217.1z"/>
	<path fill="#E8331A" d="M112,215.4c0.1,0.2,0.1,0.3,0.2,0.5c0,0.1,0.1,0.2,0.1,0.3c0.1,0.3,0.2,0.6,0.3,0.8l0,0.1
		c0.1,0.3,0.2,0.6,0.3,0.9l0.1,0.2c0.1,0.2,0.1,0.4,0.2,0.6c0,0.1,0.1,0.2,0.1,0.3c0.1,0.2,0.1,0.3,0.2,0.5l0.1,0.3
		c0.1,0.2,0.1,0.4,0.2,0.5l0,0.1c2.7-2.9,4.1-6.4,4-10.1l-1.2-38c0-1-0.5-1.8-1.4-2.5c-0.6-0.5-1.4-0.8-2.3-1
		C110.8,179.8,109.2,196.6,112,215.4z"/>
	<path fill="#CE2708" d="M102.7,208.2c-0.1-0.2-0.2-0.3-0.4-0.5c-0.3-0.4-0.6-0.9-0.9-1.3c-0.2-0.2-0.3-0.5-0.5-0.7
		c-0.4-0.5-0.8-1.1-1.2-1.6c-1-1.3-2.1-2.5-2.9-3.9c-3.3-5.3-4.4-11.8-3.2-17.9c0.7-3.3,2-6.5,3.1-9.7c1.2-3.5,2.4-6.9,3.7-10.4
		c1.6-4.5,3.3-9,4.9-13.5c0.5-1.4,1-2.7,1.5-4.1c0.3-0.8,0.6-1.6,0.9-2.4c0.3-0.8,0.6-1.6,0.9-2.4c0.8-2.1,1.6-4.2,2.4-6.3
		c2.5,1.3,4.9,2.7,7.4,4c0.2,0.1,0.2,0.1,0.1,0.3c-0.1,0.4-0.3,0.8-0.4,1.2c-0.6,1.5-1.1,3-1.7,4.5c-2,5.4-4.1,10.9-6.1,16.3
		c-0.6,1.6-1.6,3.4-1.5,5.2c0,0.3,0.1,0.6,0,1c0,0.2-0.1,0.5-0.1,0.7c-0.1,0.5-0.2,1-0.3,1.6c-0.2,1.1-0.4,2.2-0.5,3.3
		c-0.8,5.6-1.4,11.2-1.6,16.8c-0.5,9.6-0.1,19.2,1,28.7c-0.1-0.2-0.2-0.4-0.3-0.7l-0.1-0.2C105.8,213.4,104.4,210.7,102.7,208.2z"/>
	<path fill="#DDD6BA" d="M97.6,134.9c2.6-2,6-3,9.4-2.5c1.3,0.2,2.6,0.6,3.8,1.2c0.2,0.1,0.3,0.1,0.2,0.3c-0.1,0.2-0.1,0.4-0.2,0.6
		c-0.1,0.4-0.3,0.8-0.4,1.1c-0.3,0.8-0.6,1.6-0.9,2.4c-0.3,0.7-0.5,1.3-0.8,2c-0.3,0.8-0.6,1.6-0.9,2.4c-0.3,0.8-0.6,1.6-0.9,2.4
		c-0.5,1.4-1,2.7-1.5,4.1c-1.7,4.5-3.3,9-4.9,13.5c-1.2,3.4-2.5,6.9-3.7,10.4c-1.1,3.2-2.5,6.4-3.1,9.7c-1.3,6.1-0.2,12.6,3.2,17.9
		c0.9,1.4,1.9,2.6,2.9,3.9c0.4,0.5,0.8,1.1,1.2,1.6c0.2,0.2,0.3,0.5,0.5,0.7c0.3,0.4,0.6,0.9,0.9,1.3c0.1,0.2,0.2,0.3,0.4,0.5
		c1.1,1.6,2,3.3,2.9,5.1c0.1,0.1,0.1,0.2,0.2,0.4l0.1,0.2c0.1,0.2,0.2,0.4,0.3,0.5c0.2,0.4,0.4,0.9,0.6,1.3c0.1,0.2,0.1,0.4,0.2,0.5
		l0.1,0.2c0.2,0.4,0.3,0.9,0.3,1.4c0.3,2.3,0.6,4.5,1,6.7c0.4,2.2,0.7,5.8,0.7,8c0,0.7,0,1.3,0.1,2c0.2,3.5,0.5,7.1,1.3,10.5
		c0.7,2.7,1.8,6,4.2,7.7c1.2,0.8,2.7,1.2,4.1,1.4c1.7,0.2,3.5,0.2,5.2,0c1.4-0.1,2.8-0.4,4.3-0.5c1.1-0.1,2.2-0.2,3.2-0.3
		c2.4-0.3,4.8-0.6,7.2-1c5.5-0.9,11.1-2,16.5-3.2c12.1-2.7,24.1-6,35.7-10.1c2.8-1,5.5-2,8.2-3.1c3-1.2,5.9-2.6,8.9-3.7
		c5.4-2.1,11.5-3.9,17.4-3.3c2.7,0.2,5.6,1.1,7.4,3.3c1.7,2.1,1.7,5.2,0.2,7.4c-0.7,1-1.7,1.7-2.7,2.4c-1,0.7-1.9,1.5-2.9,2.3
		c-2.3,2-4.6,4.1-6.8,6.2c-4.9,4.7-9.6,9.6-14.3,14.5c-1.3,1.3-2.6,2.7-3.9,4c-1.2,1.2-2.3,2.5-3.8,3.5c-2.4,1.6-5.1,2.3-7.9,2.7
		c-5.2,0.8-10.5,0.9-15.8,0.8c-5.9-0.2-11.7-0.7-17.5-1.4c-10.9-1.4-21.7-3.5-32.4-5.9c-2.1-0.5-4.2-0.9-6.3-1.5
		c-3-0.8-5.7-2.6-7.6-5.1c-1-1.3-1.8-2.7-2.3-4.2c-0.5-1.4-0.7-2.9-0.8-4.3c-0.4-2.8-0.7-5.6-1.2-8.4c-1.1-6.3-2.5-12.5-5.1-18.4
		c-2.4-5.5-5.9-10.4-10.2-14.5c-3.7-3.5-8-6.3-12.6-8.5c-0.3-0.2-0.7-0.3-1-0.5C73.2,186.8,89.9,150.3,97.6,134.9z"/>
	<path fill="#ECF4CE" d="M67.8,198.4c0.1-0.4-0.1-0.2,0-0.6c1-4,2.6-7.8,4.2-11.7c3.8-9.1,8-18,12.2-26.9c3.2-6.8,6.5-13.5,9.8-20.2
		c0.8-1.7,2-3.1,3.5-4.2c-7.7,15.4-24.4,52-19.6,68.3c-1.6-0.8-3.3-1.4-5-2c-0.9-0.3-1.8-0.6-2.7-0.9c-0.7-0.2-1.5-0.3-2.2-0.6
		C67.7,199.4,67.8,198.8,67.8,198.4z"/>
	<path fill="#4A3231" d="M111.9,262.6c1.9,2.1,4.4,3.7,7.4,4.5c17.4,4.3,53.5,12,74.5,7.4c2.8-0.6,5.4-2.1,7.4-4.1
		c5.7-5.9,10.7-11.1,15.1-15.5C203.7,259.8,175,265.9,111.9,262.6z"/>
	<path fill="#594040" d="M205.4,260.7c0,0-6.7,11.4-18.1,11.8c-12.6,0.4-51.3-2.2-58.3-5.8C173.1,266.6,194.6,266.5,205.4,260.7z"/>
	<path fill="#CE2708" d="M273.7,182.5c14.7,3.5,28.7,10.2,40.6,19.6c8.9,7.1,17.1,15.7,22.6,25.7c1.7,3.1,3.3,6.5,3.9,10
		c0.2,1.1,0.3,2.3,0,3.4c-0.1,0.2-0.2,0.5-0.3,0.7C330,224,308.2,194.8,273.7,182.5z"/>
	<path fill="#CE2708" d="M197.9,234.2c3.6-29.1,26.2-51.6,53.7-54.4c0.7-0.1,1.3-0.1,2-0.1c6.4,0.3,12.8,1.1,19.1,2.5
		c0.3,0.1,0.7,0.2,1,0.2c34.5,12.4,56.3,41.6,66.9,59.3c-0.3,0.6-0.7,1.1-1.3,1.4c-1.7,1.1-4.4,1.1-6.3,0.9
		c-2.9-0.3-5.7-1.6-8.2-3.1c-2.7-1.6-5.9-2.7-8.8-3.8c-19.5-7.4-40.7-7.7-61.1-4.2c-16,2.8-31.3,8.2-46.8,12.9
		C202.3,247.6,197,241.5,197.9,234.2z"/>
	<path fill="#E8331A" d="M205.1,232c25-17.8,73.3-22.3,109.8-11c1.4,0.4,12.9,3.1,13,3.2c-10.8-17-32.2-31.9-51.3-37.9
		c-20.1-6.3-41.9-3.4-57.2,12c-4.1,4.2-7.7,9-10.5,14.1c-2.2,3.9-6.8,11.2-7.4,15.5C200.9,231.7,203,233.5,205.1,232z"/>
	<path fill="#F74F3E" d="M211.9,218.7c0.2-0.3,0.3-0.6,0.5-0.8c0.6-1,1.1-1.8,1.5-2.6c2.7-4.9,5.9-9.2,9.6-12.9
		c8.7-8.8,20.3-13.4,33.4-13.4c5.9,0,12,1,18,2.9c10.3,3.2,20.9,9,29.9,16.1c1.4,1.1-27.1-14-46.3-12.3
		C225.6,198.5,211.1,220.2,211.9,218.7z"/>
	<path fill="#4A3231" d="M169.1,178.9c0.1,5.5,33.1,13.6,53.2,5.8c16.1-6.3,39.1-13.3,54.3-13.8c4.5-0.1,6.8-5.4,3.9-8.9
		c-9.8-11.6-18.6-11.4-30.3-2.5c-8.3,6.3-17.6,8.8-27.3,11.1c-10,2.4-17.8,5-28.4,2.6C183.9,170.8,171,161.4,169.1,178.9z"/>
	<path fill="#594040" d="M172.4,170.1c5.2,5.2,30.8,11,47.1,4c14.6-6.3,35.3-13.3,49-13.8c2.8-0.1,4.6-2.6,4.7-5.3
		c-8.1-6.1-17.2-7.2-28.1-2.4c-14.4,6.4-27.9,15-44.4,12.5C184.7,162.8,176.4,165.1,172.4,170.1z"/>
	<path fill="#4A3231" d="M121.7,257c10.5,0,20.9-2,31-4.6c3.9-1,8.3-1.8,12.2-3.4c3.3-1.4,7.8-3.5,10-8.2c-2.3,2.3-21.7,9-39,11.1
		c-4.5,0.5-9.1,1.1-13.6,1.1c-4.3,0-7.6,0.1-10.3-3.6C110.4,255.4,117.3,257,121.7,257z"/>
	<path fill="#545454" d="M287.1,165.7c0,2.3,1.2,4.2,2.7,4.2h61c0.7,0,1.4-0.5,1.9-1.2c0.5-0.8,0.8-1.8,0.8-3c0-2.3-1.2-4.2-2.7-4.2
		h-61c-0.7,0-1.4,0.5-1.9,1.2C287.5,163.5,287.1,164.6,287.1,165.7z"/>
	<path fill="#737171" d="M287.1,165.7h66.5c0-2.3-1.2-4.2-2.7-4.2h-61c-0.7,0-1.4,0.5-1.9,1.2C287.5,163.5,287.1,164.6,287.1,165.7z
		"/>
	<ellipse fill="#1C0D04" cx="120.1" cy="76.8" rx="3.2" ry="9.6"/>
	<path fill="#CE2708" d="M115.2,76.8c0,4.3,2,8,3.6,9.2c0.3,0.3,0.7,0.4,0.9,0.4c1.5,0,2.8-4.3,2.8-9.6c0-5.3-1.3-9.6-2.8-9.6
		c-0.3,0-0.6,0.1-0.9,0.4c-1.5,1.1-3.4,4.6-3.5,8.7C115.2,76.4,115.2,76.6,115.2,76.8z"/>
	<path fill="#E8331A" d="M115.2,76.8c0,4.3,2,8,3.6,9.2c0.8-1.2,1.3-4.9,1.3-9.2c0-4.3-0.6-8-1.3-9.2c-1.5,1.1-3.4,4.6-3.5,8.7
		C115.2,76.4,115.2,76.6,115.2,76.8z"/>
	
		<ellipse transform="matrix(-0.9882 0.1531 -0.1531 -0.9882 244.2642 135.5727)" fill="#474747" cx="116.9" cy="77.2" rx="1.5" ry="2"/>
	<path fill="#C3C3C3" d="M115.3,115.9l0.1,0c0.5-0.1,0.8-0.5,0.8-1L111.9,84l5.7-6.6c0.3-0.4,0.3-0.9-0.1-1.2
		c-0.4-0.3-0.9-0.3-1.2,0.1l-5.9,6.9c-0.2,0.2-0.2,0.4-0.2,0.7l4.3,31.3C114.5,115.6,114.8,115.9,115.3,115.9z"/>
	<path fill="#C3C3C3" d="M115.4,113.9L115.4,113.9c1.4-1.2,3.5-1,4.7,0.4l9.1,11.4l-1-0.1l-0.4,3.6h-2.8c0.3-0.2,0.6-0.4,0.7-0.7
		c0.1-0.1-0.2-0.3-0.3-0.2c-0.2,0.2-0.4,0.3-0.7,0.3v0c0-0.4-0.4-0.5-0.7-0.4c0-0.2,0-0.4,0-0.7c0-0.5-0.4-0.7-0.9-0.7
		c-0.3,0-0.6,0.2-0.7,0.5l-7.5-8.8C113.9,117.2,114,115.1,115.4,113.9z"/>
	<path fill="#4A3231" d="M116.4,123.7c1.3,2.3,4.7,2.5,7.2,0.7c2.5-1.7,3.2-4.9,1.7-7c-1.5-2.1-4.8-2.6-7.2-0.7
		C115.8,118.7,114.9,121.1,116.4,123.7z"/>
	<path fill="#4A3231" d="M126,117.9l-1.3-1.2c-0.2-0.1-1.1-0.6-1.3-0.6l-2.6,0.3L126,117.9z"/>
	
		<ellipse transform="matrix(-0.8599 0.5104 -0.5104 -0.8599 287.9752 163.2588)" fill="#C3C3C3" cx="121.6" cy="121.1" rx="5.5" ry="4"/>
	
		<ellipse transform="matrix(-0.8824 0.4705 -0.4705 -0.8824 286.3906 171.3639)" fill="#474747" cx="121.8" cy="121.5" rx="4.7" ry="3.5"/>
	<path fill="#4A3231" d="M120.6,119.2c2.3-1.3,4.2-0.7,5.2,0.3c3.1,3.9,7.6,7.3,10.6,12.1c0.1,0.1,0,0.4-0.1,0.6
		c-0.2,0.7-0.4,1.1-0.6,1.8c-0.6-0.1-1.3-0.3-1.9-0.4c-0.1,0.4-0.1,0.7-0.2,1.1c-0.9-0.2-2.2,0.3-2.2,0.4c-3.5-3.9-9.1-6.9-13.3-11
		C117.4,122.8,118.8,120.4,120.6,119.2z"/>
	
		<ellipse transform="matrix(-0.7601 -0.6498 0.6498 -0.7601 148.9356 321.3778)" fill="#C3C3C3" cx="133.8" cy="133.2" rx="2.4" ry="3.2"/>
	<path fill="#EFCEAC" d="M130.9,126.9l-0.5,0.9c2.3-0.6,4.7-0.9,6.7-1.1c0.4,0,2.1-0.2,3.9-0.4c2.4-0.2,5-0.3,5.1,0.2l-0.3-1.1l-1-4
		c-1.2-0.1-2.4-0.1-3.6-0.2c-2.7-0.1-5.4-0.1-8.1,0c-2,0.1-4.1,0.2-6.1,0.5l3.6,3.6c0.1,0.1,0.2,0.2,0.2,0.3
		C131.2,126,131.2,126.4,130.9,126.9z"/>
	<path fill="#E0B999" d="M130.4,127.7c2.3-0.6,4.7-0.9,6.7-1.1c0.4,0,2.1-0.2,3.9-0.4c2.4-0.2,5-0.3,5.1,0.2l-0.3-1.1
		c-1.6-0.1-3.2-0.1-4.8-0.2c-1.9,0-3.9,0-5.8,0.1c-1.4,0.1-2.8,0.1-4.3,0.3c0.2,0.4,0.2,0.9,0,1.3L130.4,127.7z"/>
	<path fill="#C9C3B9" d="M203.7,99.2l-14.6,4.1l1.1,27.1l-48.8-10.9l-0.4,7.6c0,0,29.3,14.6,56.3,21.6
		C198.8,149.1,208.3,133.8,203.7,99.2z"/>
	<path fill="#C9C3B9" d="M134.1,208.3c2.6-7.7,3.2-16.4,6.5-23.9c2-4.5-0.5-3.6,3.9-3.8c1,0,9.1,0.7,8.9,1.5
		c-3.3,17.3-10,34-17.3,49.7c-1.1,2.3-4.3,10.7-5.2,12.6c-0.5,1.1-7.4-0.9-7.2-2.3C124.6,236.8,131.8,215,134.1,208.3z"/>
	<path fill="#FFFFFF" d="M160.4,69.5c-0.1-1,0.4-2.1,0.9-3c-0.3,0.5-2.2,1.3-2.8,1.5c-3.1,0.7-4.6-2.6-6.1-4.6
		c2.8-0.6,5.3-1.4,7.9-2.3c1.9-0.6,6.7-0.8,6.4,2.3c-0.1,1.5-1.9,2.9-3.1,3.6c-0.6,0.3-1.4,0.4-1.9,0.8
		C161.7,67.8,160.4,69.6,160.4,69.5z"/>
	<path fill="#EFCEAC" d="M143.8,58c0.4,0.4,0.8,0.8,1.3,1.2c0.1,0.1,0.3,0.2,0.4,0.3l0.1,0.1c1.7,1,4.3,1.3,5.7,2.4l0.1,0
		c1.5,1.2,0.8,4.8,3.1,5.2c2.1,0.3,7.2-2.9,9.6-4.9c0.5,2.9-6.4,4.7-6.6,8.9c3.2,1.5,2.8,5.5,9.1,6.4c1.2,0.2,2.7,0.2,4.1,0
		c1.7-0.2,3.3-0.5,4.8-0.7c6.7-0.8,15.7-1.5,18.4-7.6c5.3-11.7,19.6-20.5,14.3-33.5c-7.9-19.1-32.2-25.5-48.2-12.8
		c-6.8,5.4-6.1,9.1-6.9,16.5c-0.3,3-1.5,6.7-3.7,8.7c-0.7,0.6-1.6,1-2.5,1.4c-0.5,0.2-1.1,0.5-1.6,0.7c-1,0.5-1.9,1.1-2.5,2
		C141.7,54.3,142.4,56.4,143.8,58z"/>
	<path fill="#470A04" d="M202.9,55.2c-1,4.5,1,11.8,7.3,8.5c-1.7,2.4-5.7,3.8-8.3,2.4c1,5,7.6,4.7,11.5,5.6c0.1,2.6-5.3,3-7.1,2.9
		c-3.5-0.3-6.6-3.4-8.8-5.8c-3.4-3.8-3.1-9-2.2-13.7c0.3-1.2,3.2-11,1.5-11.6c-1.7-0.7-7.8,6.7-7.8,6.7l-7.1-7.5
		c-0.3-0.3-0.4-1.8-0.6-2.3c-0.9-2.2-2.7-4-4.7-5.3c-4.8-3.2-12.9-6.7-18.7-4.7c-3.6,1.3-7.9,8.6-12.1,5.6c1.2-0.2,4-1.5,4.6-2.6
		c-3.5,2.2-8.5-0.1-11.5-2.2c-1.2-0.8-3-2.7-3.1-4.3c-0.2-1.9,2.1-2,2.1-2.3c-0.3,4.6,5,6.5,8.8,5.9c4.6-0.8,5.5-6.9,9.8-8.7
		c5.2-2.2,11.1-2.1,16.6-2.3c7.8-0.3,16.6,0.5,23.1,5.4C205.5,31.9,205.2,44.8,202.9,55.2z"/>
	<path fill="#E2DED7" d="M140.8,217.9c2-7.1,2-14.9,4.7-21.8c1.6-4.2,1.8-4.3,6.2-4.6c1-0.1,9.1,0.3,9,1.1
		c-2,15.7-7.4,31.1-13.4,45.5c-0.9,2.1-2.9,9.8-4.7,10.9c-2.8,1.7-4.7-1.6-6.9-2.3c0.7-4.5,1.5-8.9,1.8-13.5
		C137.8,228.3,139.5,222.8,140.8,217.9z"/>
	<path fill="#2D6572" d="M157.4,154.3c-7.7-0.1-14.4,16.7-17.1,25.7c-1.7,5.8-9.2,36.9-10.2,36.5c1.9,1.8,6.8,5.1,9.4,5.8
		c8,2,9.3-23.5,16.4-27.9c5.8-3.6,3.6-17.1,3.9-23.2C160,167.5,164.7,154.4,157.4,154.3z"/>
	<path fill="#EFCEAC" d="M194,69.2c2.2,3.8,9.4,7.7,8,12.4c-0.9,3-5.3,5.9-7.7,7.7c-3.3,2.6-4.7,2.6-8,0c-4.4-3.5-6.1-8.8-7-14.1
		c-0.5-2.8-2.2-7.2,0.8-9.1C182.4,64.8,192.6,66.7,194,69.2z"/>
	<path fill="#357787" d="M202.7,141.4c-3.1,3.3-9.1,3.2-13.9,3.8c-9.5,1.1-19.1,2.7-28.3,5.6c-13.5,4.2-12.7,12.7-15.1,24.1
		c-3.6,17.3-1.9,31.9-7.4,48.9c-0.4,1.1,14.5,8,15.1,3.4c1.2-8,12.4-46.6,14.6-52.4c6.1-16.2,26.8-4.2,42.9-7
		c18.9-3.3,30.9-8.1,34.7-23.5C231.5,146.5,212.9,143.5,202.7,141.4z"/>
	<path fill="#357787" d="M175.6,76.8c0,0,15.9-7,18.9-19.1c3-12.1,4,1.7,4,1.7s-5.1,15.1-20,19.7C176.4,78.5,175.6,76.8,175.6,76.8z
		"/>
	<path fill="#CE2708" d="M248.6,145.7c3.4-2.4,11.3-4.7,6-9.6c-2.7-2.5-5.1-4.5-7.4-7.6c-5-6.9-6.4-15.9-10.7-23.2
		c-4.5-7.9-9-12.6-18.3-20.3c-2-1.7-17.6-9.6-17.8-8.7c-1.9,9.3-9.8,9.5-17,10.8c-0.4,8.4,4.9,21.7,9.2,28.9
		c3.9,6.6,14.4,17.4,11.1,23.6c-0.3,0.6-0.7,1.1-1.1,1.5c9.3,1.9,18.5,4.2,27.9,5.5C236.7,147.4,243.6,149.3,248.6,145.7z"/>
	<path fill="#AA1B07" d="M117.2,253.1c-3.7-1.1-5.1-2.8-5.7-4.8c3.9-1.1,10.4-1.5,12.1-6.3c1.1,0.8,1.7,1.7,3,2.2
		c1.7,0.6,2.7,0.4,4.5,0.6c-0.3,0.4,0.4,5.5-0.9,6.6c-1.4,1.1-4.6,0.5-6.2,1.3c-1.2,0.6-3.7,0-6,0.8L117.2,253.1z"/>
	<path fill="#470A04" d="M170.9,40c0,0-6.4-4.9-12.3-0.4C152.7,44.1,160.1,30.9,170.9,40z"/>
	<path fill="#FFFFFF" d="M167.4,47c0,0-5.8-6.1-10.9-2.9C153.9,48.9,159,53.4,167.4,47z"/>
	<ellipse fill="#774B42" cx="158.6" cy="46.1" rx="2.1" ry="2.6"/>
	<ellipse fill="#470A04" cx="157.7" cy="46.1" rx="0.9" ry="1.2"/>
	
		<radialGradient id="SVGID_1_" cx="-7.3333" cy="-75.4287" r="1" gradientTransform="matrix(-11.8352 0 0 -11.8352 89.1816 -837.4318)" gradientUnits="userSpaceOnUse">
		<stop  offset="0" style="stop-color:#E89587"/>
		<stop  offset="3.636360e-003" style="stop-color:#E89587"/>
		<stop  offset="0.9964" style="stop-color:#EFCEAC"/>
		<stop  offset="1" style="stop-color:#EFCEAC"/>
	</radialGradient>
	<circle fill="url(#SVGID_1_)" cx="176" cy="55.3" r="11.8"/>
	<path fill="#D8A88F" d="M167.4,47c0,0-8.4-8.3-10.9-2.9C156.2,44.6,159.8,42.1,167.4,47z"/>
	<path fill="#D8A88F" d="M145.1,59.2c0.2,0.1,0.4,0.3,0.6,0.4c1.7,1,4.3,1.3,5.7,2.4c0-0.1,0-0.2,0-0.4c0-0.7-0.6-0.9-0.9-1.3
		c-0.8-1.2-2-2.1-3.5-1.8C146.5,58.5,145.8,58.5,145.1,59.2z"/>
	
		<linearGradient id="SVGID_2_" gradientUnits="userSpaceOnUse" x1="-7.3333" y1="-75.4287" x2="-6.3333" y2="-75.4287" gradientTransform="matrix(8.1971 4.0182 -4.0182 8.1971 -105.4825 697.9701)">
		<stop  offset="0" style="stop-color:#E88076"/>
		<stop  offset="3.636360e-003" style="stop-color:#E88076"/>
		<stop  offset="0.9964" style="stop-color:#EFCEAC"/>
		<stop  offset="1" style="stop-color:#EFCEAC"/>
	</linearGradient>
	<path fill="url(#SVGID_2_)" d="M143.8,58c0.4,0.4,0.8,0.8,1.3,1.2c0.1,0.1,0.3,0.2,0.4,0.3c-0.9-3.8,0.2-7.3,1.5-9.9
		c-0.5,0.2-1.1,0.5-1.6,0.7c-1,0.5-1.9,1.1-2.5,2C141.7,54.3,142.4,56.4,143.8,58z"/>
	<path fill="#CE2708" d="M171.1,4.9c-11.7,4.3-22.1,14.5-30.8,23.1c0.2-0.2,1.7,4.5,16,1.6c7.7-1.6,16.1,0.9,22.6,5.5
		c5.7,4,13.2,9.7,13.6,17.3c0.1,1.5-0.8,3.4-0.4,5.1c2,6.9,9.5,5.6,12.1,0.7c1.6-3,2.2-5.9,4.2-9c2-3,3.9-5.8,5-9.2
		c4.5-14.5-6.3-29.6-19.9-35C185.6,1.8,178.1,2.3,171.1,4.9z"/>
	<path fill="#E8331A" d="M201.9,17.4c3.8,3.3,5.6,7.8,8.5,12.3C209,17.6,202,10.8,193,7.4c-7.8-2.9-17-2.6-24.5,1.1
		c-6.8,3.4-19.6,11.9-27.1,19.4c3.9-3,7.5-6.2,11.3-8.6c7.9-5,17-9.1,26.5-9.6c7.4-0.4,13.8,1.9,20,5.6
		C200.3,16,201.2,16.7,201.9,17.4z"/>
	<path fill="#E8331A" d="M195.3,55.1c0,0-1.2-28.3-39.5-27.8C159.9,24.4,196.6,24.9,195.3,55.1z"/>
	<path fill="#CE2708" d="M144.5,245.9c0,0-5.7,2.3-8.8,0c-9.7,5.8-18.3-1.5-21.5,2.3c-5.5,6.5,22.4,8.9,31.1,3.9
		C147.7,249.4,144.5,245.9,144.5,245.9z"/>
	<path fill="#EFCEAC" d="M126.9,137.6c0.2,0.3,0.5,0.6,0.9,0.9c1.1,0.9,2.9,1.6,3.8,0.9c1.3-1,1.1-4.8,2.6-6.2
		c3.2-3.1,9.2-3.5,13.4-3.5c0.9,0,9-0.3,9.2,0.5l-0.2-1.1l-0.7-4.1c-3.9-0.6-7.9-0.9-11.9-1.1c-3-0.1-6-0.2-9,0.3
		c-1.9,0.3-6.7,0.5-7.9,2C125.6,128.1,125.5,135.6,126.9,137.6z"/>
	<path fill="#E0B999" d="M127.7,138.5c1.1,0.9,2.9,1.6,3.8,0.9c1.3-1,1.1-4.8,2.6-6.2c3.2-3.1,9.2-3.5,13.4-3.5c0.9,0,9-0.3,9.2,0.5
		l-0.2-1.1c-3.6-0.5-7.2-0.8-10.8-0.9c-3.8-0.2-7.8-0.2-11.5,1c-1.9,0.6-3.7,1.5-5.1,2.9C127.3,134,127.5,136,127.7,138.5z"/>
	<path fill="#E2DED7" d="M216.2,109.4l-18.4,1.3l3.5,27l-48.9-14.8l-1,7.5c0,0,28.7,16.9,55.6,26C208.6,157,222.8,149.1,216.2,109.4
		z"/>
	<path fill="#470A04" d="M159,43.9c0,0-2.2,0.2-3.2-1C156.3,44.4,156.3,44.3,159,43.9z"/>
	<path fill="#E8331A" d="M197,115.8c0,0-7.1-15.2-4.6-22.7c2.6-7.5,17.5-13.5,25.8,13.2C219.7,110.5,197,115.8,197,115.8z"/>
	<path fill="#9AA4A5" d="M284.5,185.6c0.1-0.2,0.2-0.5,0.1-0.8c0-0.3-3.6-27.2,0.8-61.1c2.9-22.9,10-52.6,26.6-78.8
		c5-8,10.9-15.6,17.9-22.6c1.3-1.4,2.7-2.7,4.1-4c0.5-0.5,0.6-1.3,0.1-1.9c-0.5-0.5-1.2-0.5-1.7-0.1l-0.1,0.1
		c-1.5,1.3-2.9,2.7-4.2,4.1c-7.2,7.3-13.2,15.2-18.4,23.3c-16.7,26.6-23.9,56.5-26.8,79.6c-4.1,32-1.3,57.9-0.8,61.4
		c0.4,0.1,0.7,0.2,1.1,0.4L284.5,185.6z"/>
	<path fill="#BBC3C4" d="M332.5,18.2c-1.2,1.1-2.4,2.3-3.5,3.4c-7.1,7.1-13.1,14.8-18.3,22.9c-16.8,26.3-23.9,56.1-26.9,79.2
		c-4.3,33.9-0.8,60.8-0.8,61.1c0,0.1,0,0.2,0,0.3c-0.4-0.1-0.7-0.3-1.1-0.4c-0.4-3.5-3.3-29.4,0.8-61.4c3-23.1,10.1-53,26.8-79.6
		c5.2-8.2,11.2-16.1,18.4-23.3c1.4-1.4,2.8-2.8,4.2-4.1l0.1-0.1l0.2,0.1C333.1,16.9,333,17.7,332.5,18.2z"/>
	<path fill="#CE2708" d="M331.9,24.6c-0.6-0.7-1.3-1.5-1.8-2.3c-1.1-0.5-1.5-1-2-2c-10,8.1-18.5,23.2-18.5,23.2s0.9,1.4,3,1.3
		c0.9,0.2,2.2,0.3,3.3,0.5c11.6,2.3,36.3,7.7,54.8,1.2C370.7,46.7,341.9,35.7,331.9,24.6z"/>
	<path fill="#FC371C" d="M370.8,125c-0.3-2.7-0.7-5.4-1.4-8.1c-1.5-5.8-9.2-11.6-15.8-12.4c-16.8-1.8-33.5-2.1-50.3-0.9l21.4,21.4
		H370.8z"/>
	<path fill="#E8331A" d="M303.4,103.7c-3.5,0.3-7.1,0.5-10.6,0.9c-6.6,0.8-14.2,6.5-15.8,12.4c-0.6,2.7-1.1,5.4-1.4,8.1h49.1
		L303.4,103.7z"/>
	<path fill="#CE2708" d="M275.4,137.9c0.3,3.3,0.8,6.6,1.6,9.9c1.5,5.8,9.2,11.6,15.8,12.4c20.3,2.2,40.6,2.2,60.9,0
		c1.6-0.2,3.2-0.7,4.8-1.4l-20.9-20.9H275.4z"/>
	<path fill="#CE2708" d="M329.9,130.2h-54.7c0,0.8,0,1.7,0,2.5h57.2L329.9,130.2z"/>
	<path fill="#F12E09" d="M358.5,158.8c5.1-2.2,9.8-6.6,10.9-11c0.8-3.3,1.3-6.6,1.6-9.9h-33.4L358.5,158.8z"/>
	<path fill="#F12E09" d="M332.4,132.7h38.8c0-0.8,0-1.7,0-2.5h-41.3L332.4,132.7z"/>
	<path fill="#FFAD40" d="M375.5,128.1v-0.9c0-1.2-0.9-2.1-2.1-2.1h-2.6c0.2,1.5,0.3,3.1,0.4,4.6c0,0.2,0,0.4,0,0.5h2.2
		C374.5,130.2,375.5,129.2,375.5,128.1z"/>
	<path fill="#FFAD40" d="M275.6,125h-2c-1.2,0-2.1,0.9-2.1,2.1v0.9c0,1.2,0.9,2.1,2.1,2.1h1.6c0-0.2,0-0.4,0-0.5
		C275.3,128.1,275.5,126.6,275.6,125z"/>
	<path fill="#FFAD40" d="M329.4,129.7h41.8c-0.1-1.5-0.2-3.1-0.4-4.6h-46.1L329.4,129.7z"/>
	<path fill="#FFAD40" d="M329.4,129.7l-4.6-4.6h-49.1c-0.2,1.5-0.3,3.1-0.4,4.6H329.4z"/>
	<path fill="#FFAD40" d="M329.4,129.7h-54.1c0,0.2,0,0.4,0,0.5h54.7L329.4,129.7z"/>
	<path fill="#FFAD40" d="M329.4,129.7l0.5,0.5h41.3c0-0.2,0-0.4,0-0.5H329.4z"/>
	<path fill="#FFAD40" d="M273.7,132.7c-1.2,0-2.1,0.9-2.1,2.1v0.9c0,1.2,0.9,2.1,2.1,2.1h1.8c-0.1-1.7-0.2-3.4-0.2-5.2H273.7z"/>
	<path fill="#FFAD40" d="M373.4,137.9c1.2,0,2.1-0.9,2.1-2.1v-0.9c0-1.2-0.9-2.1-2.1-2.1h-2.1c0,1.7-0.1,3.4-0.2,5.2H373.4z"/>
	<path fill="#FFAD40" d="M337.6,137.9H371c0.1-1.7,0.2-3.4,0.2-5.2h-38.8L337.6,137.9z"/>
	<path fill="#FFAD40" d="M332.4,132.7h-57.2c0,1.7,0.1,3.4,0.2,5.2h62.1L332.4,132.7z"/>
</g>
</svg>
